#!OML:ASF E:/inclinewalkrobotboard/Project1/Captureday1/Session1/subject1.ASF
:FULLY-SPECIFIED
:DEGREES
213
root 0 0 0 -0.38901296327835044 -2.02972912719619 -3.882371172037613
lowerback 16.494124552656032 1.1052665769544425 -0.11621218761962182
upperback 0.683835428893696 1.448867242284209 0.3286484167588777
thorax -8.588119499407854 0.6863558886510637 0.0500524766783379
lowerneck -7.465867888162695 -3.267656678793426 1.2919118618248397
upperneck -5.821348332052732 -4.243358021256066 1.750803068100617
head -0.675985453863789 -2.1974072706046077 0.24381633515614431
rclavicle -3.8031521983438655E-16 1.665542972007275E-17
rhumerus 12.087229048380287 0.4864861763163475 -39.45250086613092
rradius 118.73846242650889
rwrist -30.783744370600374
rhand -11.684325877365064 -36.54097121537962
rfingers 7.125019999999964
rthumb 14.399303309045376 -65.95733079725076
lclavicle -4.065683533944439E-16 -4.632165524673278E-16
lhumerus -43.34070771729833 -0.3878367730962262 83.15158499872909
lradius 45.26720463927891
lwrist 1.9426968675182306
lhand -15.586803625209495 -12.198548655767686
lfingers 7.1250199999999335
lthumb 10.555154999657594 16.939635504529967
rfemur -2.781135061195629 1.0351321903440116 5.56224112967667
rtibia 8.327541606634071
rfoot -1.5683765317276008 -1.3570814560182831
rtoes 0.7973581961348795
lfemur -6.508840756765228 -3.5745888409374826 -12.221790326474208
ltibia 27.394482481836807
lfoot -19.291886088408614 7.992183583241353
ltoes -43.37808009977638
214
root 0 0 0 -0.39079344687017636 -2.029162782478047 -3.882274353669151
lowerback 16.49363962554063 1.1082518070129095 -0.11476147313883212
upperback 0.6854421608351433 1.4531948012781202 0.32827073642225846
thorax -8.585750772308607 0.6884061235933158 0.048370925438010914
lowerneck -7.47051899794171 -3.2717307909544173 1.285578318991273
upperneck -5.8001184049410135 -4.249795355427475 1.7572483391717866
head -0.6679760969656732 -2.1998549941238954 0.24599093677642805
rclavicle -3.7954635487854825E-16 1.5748953650648097E-17
rhumerus 12.081410945688923 0.4629258086975252 -39.46494247819029
rradius 118.69350103435818
rwrist -30.76254077974294
rhand -11.694438133159592 -36.48664422645664
rfingers 7.125019999999963
rthumb 14.390031046443546 -65.90443747008226
lclavicle -4.0836837064790957E-16 -4.631441059593561E-16
lhumerus -43.33133422166947 -0.38732686346131084 83.15104047600214
lradius 45.2524673512425
lwrist 1.9454791431233647
lhand -15.596502681708104 -12.168340567678758
lfingers 7.1250199999999335
lthumb 10.546098537810469 16.968494470962497
rfemur -2.7749658838027056 1.032901868905002 5.550396101107648
rtibia 8.310174372507099
rfoot -1.564130057331118 -1.3538249910115612
rtoes 0.7961662671963512
lfemur -6.511584324226913 -3.5727313996283825 -12.227777662539044
ltibia 27.400434050810002
lfoot -19.281121642745546 7.982971437069017
ltoes -43.347100149179596
215
root 0 0 0 -0.39050205773328717 -2.029767653775 -3.880956569831231
lowerback 16.495661183591814 1.1047393419867313 -0.11694521145835446
upperback 0.6839038223440717 1.4481997677031178 0.32899314884196595
thorax -8.588919291347537 0.6859923650414731 0.05089436993691521
lowerneck -7.470269245301221 -3.2680632339330913 1.2907713066234692
upperneck -5.822077361158158 -4.243390673544354 1.749605281697024
head -0.675076374910125 -2.1975521716481015 0.2434869709743286
rclavicle -3.808970507091468E-16 1.6002599648973255E-17
rhumerus 12.073423078287824 0.46907531837741523 -39.46866580420469
rradius 118.6938209234639
rwrist -30.762767542241154
rhand -11.690844243213906 -36.50020837926616
rfingers 7.125019999999963
rthumb 14.393150351321992 -65.91785788853453
lclavicle -4.064138918643771E-16 -4.637286982544195E-16
lhumerus -43.33585652711934 -0.38740437948284046 83.15066468047543
lradius 45.259112159744625
lwrist 1.9448433445613709
lhand -15.592644086113843 -12.179906211857706
lfingers 7.1250199999999335
lthumb 10.549712881210485 16.957060564291986
rfemur -2.7769770847852593 1.0333281181679708 5.553251894487406
rtibia 8.31579062288196
rfoot -1.5653408050357585 -1.3548591683981996
rtoes 0.7961532786200365
lfemur -6.511007566677147 -3.572947361622766 -12.227210796864147
ltibia 27.39940395062089
lfoot -19.282068289971505 7.983535257662213
ltoes -43.34948140740406
216
root 0 0 0 -0.390195067656657 -2.0300121778025577 -3.8808699140478513
lowerback 16.49701530788517 1.103770914935594 -0.11752398045927015
upperback 0.6831929881141253 1.4467898750831238 0.32906879682932555
thorax -8.5904542474172 0.6853108224057873 0.05140222073888079
lowerneck -7.469583539969832 -3.2669747471294674 1.2927796968009337
upperneck -5.832232909827688 -4.241509018073367 1.747278036209763
head -0.6786510227201852 -2.1968997174935727 0.2427080287985918
rclavicle -3.806097449452093E-16 1.6146309069192597E-17
rhumerus 12.07595249491029 0.47406740158259986 -39.46517761246834
rradius 118.70484417613687
rwrist -30.76788406112704
rhand -11.688866972315516 -36.51171994715746
rfingers 7.125019999999963
rthumb 14.3950089376087 -65.92892811058633
lclavicle -4.064716323127328E-16 -4.636791725003893E-16
lhumerus -43.33717165565897 -0.3877421520465334 83.15071324660265
lradius 45.26169195518058
lwrist 1.9447043001909554
lhand -15.591171073363629 -12.184515249418464
lfingers 7.1250199999999335
lthumb 10.550995953391157 16.952776603366082
rfemur -2.779869525837741 1.0345104242309728 5.5593473425249265
rtibia 8.324285347261632
rfoot -1.5672112886547849 -1.3563664716460302
rtoes 0.7970595299123002
lfemur -6.510491745266594 -3.5733177971626455 -12.225888958253066
ltibia 27.398239903546102
lfoot -19.284524887430663 7.985727335031493
ltoes -43.35665503426201
217
root 0 0 0 -0.3894943316265742 -2.029996692554425 -3.8814828302886895
lowerback 16.496493026948063 1.1039015702214423 -0.11728787197716317
upperback 0.6830360546201096 1.4469312520675182 0.32890610741058757
thorax -8.590322643626202 0.6853995428147672 0.051088200671117745
lowerneck -7.467591077384368 -3.2666925676356127 1.293504666170131
upperneck -5.833244846839975 -4.241310544917801 1.7475734305779502
head -0.6794853893190211 -2.196775147700557 0.242774497029344
rclavicle -3.803968194519838E-16 1.6463150402924513E-17
rhumerus 12.081755198971713 0.4820079872082328 -39.45819158971592
rradius 118.72452765795788
rwrist -30.777207209348603
rhand -11.685847424742061 -36.53026916523389
rfingers 7.125019999999964
rthumb 14.397859269313905 -65.94696051478705
lclavicle -4.0638653890467187E-16 -4.633272291675964E-16
lhumerus -43.340678926825646 -0.3877883572746954 83.15137499429886
lradius 45.26696339239158
lwrist 1.942882675699632
lhand -15.5870603562796 -12.197627434004863
lfingers 7.1250199999999335
lthumb 10.554890406914744 16.94032800750087
rfemur -2.7796044379362126 1.0344747088784492 5.558949445814829
rtibia 8.323159572091688
rfoot -1.567269774875781 -1.3562631677669446
rtoes 0.7969255349900388
lfemur -6.509354570655828 -3.574175042841851 -12.223192938282423
ltibia 27.395750310217664
lfoot -19.289385242585 7.989977970871969
ltoes -43.3707724842052
218
root 0 0 0 -0.39121209077425045 -2.029434094230552 -3.8815976319607057
lowerback 16.496303182086358 1.1070919864972601 -0.11568442503713905
upperback 0.6846498763502386 1.4515472003513308 0.3284377190793363
thorax -8.588094319296411 0.6875876013423474 0.04917131066932423
lowerneck -7.472003175475692 -3.270957623469344 1.2871091184340924
upperneck -5.812747441730249 -4.248069551133119 1.754349581497654
head -0.6718146406051186 -2.199359999955294 0.24505195264027035
rclavicle -3.796308970945162E-16 1.5650911039626082E-17
rhumerus 12.079376774035374 0.46039607953878203 -39.46730117835997
rradius 118.68703922269802
rwrist -30.759440189646753
rhand -11.695366690546829 -36.48081692051254
rfingers 7.125019999999963
rthumb 14.389149699152536 -65.89879900934005
lclavicle -4.083039250456339E-16 -4.6322398811742115E-16
lhumerus -43.33117049733691 -0.38734740868405504 83.15088725248704
lradius 45.25220153145965
lwrist 1.945724631153102
lhand -15.596825629708967 -12.167263538561789
lfingers 7.1250199999999335
lthumb 10.545773562486003 16.969439188059518
rfemur -2.7750313076038458 1.0329168468681256 5.550533394720469
rtibia 8.31056779813983
rfoot -1.5640921407915358 -1.3538421788436765
rtoes 0.7962506990606848
lfemur -6.512374945792309 -3.572157725629022 -12.22944676941945
ltibia 27.402175519455
lfoot -19.27802021835972 7.980277000224779
ltoes -43.338278555424374
219
root 0 0 0 -0.39081776983718075 -2.029968418109656 -3.88059670684298
lowerback 16.49785814604043 1.1040601013277125 -0.11751189780242188
upperback 0.6832632023475067 1.4472363162128858 0.3290385917486274
thorax -8.590816345391021 0.6855059096759302 0.051294073085898284
lowerneck -7.471413390239485 -3.267690714480386 1.2917774608525758
upperneck -5.831987623993879 -4.24243266675376 1.7477469544867947
head -0.678119505560864 -2.1973216914008047 0.24288257611562009
rclavicle -3.8099514133241113E-16 1.5956286745859077E-17
rhumerus 12.0735449399169 0.46751675346149923 -39.469021206241564
rradius 118.691647054838
rwrist -30.761633816578243
rhand -11.691511292154683 -36.49686439112806
rfingers 7.125019999999963
rthumb 14.392517680127371 -65.91462743295466
lclavicle -4.0638731971205756E-16 -4.637734569092785E-16
lhumerus -43.335668372179356 -0.38740330892805985 83.15058937662725
lradius 45.258809637643395
lwrist 1.9450004949431268
lhand -15.592921757424172 -12.178992305609789
lfingers 7.1250199999999335
lthumb 10.54944188408605 16.95790197900019
rfemur -2.777767472574271 1.033650341356187 5.554954647595437
rtibia 8.318343161958715
rfoot -1.5658037600654886 -1.3552596386913534
rtoes 0.7964667157011098
lfemur -6.5117886284563316 -3.5724081307116142 -12.22869320219952
ltibia 27.40104078356591
lfoot -19.279266649823427 7.9811182608251485
ltoes -43.341595158153005
220
root 0 0 0 -0.3903904500553347 -2.0301235659174273 -3.880828193640133
lowerback 16.498515832625237 1.103603283235073 -0.11770842212322119
upperback 0.6827500995819153 1.4465548774068002 0.32899948729718764
thorax -8.591730283863019 0.6851795709394909 0.0513981634842009
lowerneck -7.470333635289555 -3.267010749668171 1.2931820214780174
upperneck -5.838495762454475 -4.241359720224915 1.7465757996135687
head -0.680595198636766 -2.1969359491867246 0.2424764024670652
rclavicle -3.807172064956661E-16 1.613756534386979E-17
rhumerus 12.077640132581195 0.47319477125439313 -39.46408745390391
rradius 118.70574739735954
rwrist -30.768166488352012
rhand -11.689354678074988 -36.510123061879014
rfingers 7.125019999999963
rthumb 14.394547186364578 -65.92738823680108
lclavicle -4.0645825381053597E-16 -4.636957718631087E-16
lhumerus -43.336957253414646 -0.38769925651742443 83.15070448127642
lradius 45.2613069330664
lwrist 1.9447645980432189
lhand -15.591418979484724 -12.183704598362603
lfingers 7.1250199999999335
lthumb 10.550765465352255 16.953552524361292
rfemur -2.7810519388045476 1.0349996459091404 5.56189667170017
rtibia 8.32798274439076
rfoot -1.5679575394035048 -1.3569769025140745
rtoes 0.7974872755854965
lfemur -6.511136687392707 -3.5728949268503563 -12.226991298925334
ltibia 27.399524255238184
lfoot -19.282405972075985 7.983913252720248
ltoes -43.350747902475405
